<svg id="Camada_2" data-name="Camada 2" xmlns="http://www.w3.org/2000/svg" viewBox="0 0 288.77 76.11"><polygon points="51.57 33.93 57.27 23.84 43.14 0 26.44 0 21.3 10.41 38.6 10.41 51.57 33.93" fill="#b2b2b2"/><polygon points="49.82 45.67 61.87 45.67 75.8 22.19 67.18 7.57 55.02 7.57 62.81 24.62 49.82 45.67" fill="#3c3c3b"/><polygon points="72.25 38.23 63.7 52.21 36.81 52.1 42.05 62.4 69.68 62.61 78.36 47.67 72.25 38.23" fill="#575756"/><polygon points="26.3 43.49 19.55 52.77 33.33 76.11 50.62 76.11 55.9 67.6 40.08 67.6 26.3 43.49" fill="#706f6f"/><polygon points="28.05 29.57 17.09 29.57 3.73 53.54 10.9 67.53 22.78 67.53 14.91 52.56 28.05 29.57" fill="#878787"/><polygon points="14.27 24.36 40.22 24.36 35.3 15.71 8.16 15.71 0 29.57 5.84 38.23 14.27 24.36" fill="#9d9d9c"/><path d="M93.55,9.27H114.8v4.06H98.64V25.77h14.93v4H98.64V46.73H93.55Z" transform="translate(-3.5 -4.5)" fill="#fff"/><path d="M127.15,9.27V31.44c0,8.39,3.92,12,9.19,12,5.85,0,9.6-3.67,9.6-11.95V9.27h5.15V31.11c0,11.5-6.38,16.23-14.93,16.23-8.08,0-14.16-4.39-14.16-16V9.27Z" transform="translate(-3.5 -4.5)" fill="#fff"/><path d="M167.42,13.38h-12V9.27h29.21v4.11H172.57V46.73h-5.15Z" transform="translate(-3.5 -4.5)" fill="#fff"/><path d="M194.11,9.27V31.44c0,8.39,3.92,12,9.19,12,5.85,0,9.6-3.67,9.6-11.95V9.27h5.15V31.11c0,11.5-6.38,16.23-14.93,16.23C195,47.34,189,43,189,31.33V9.27Z" transform="translate(-3.5 -4.5)" fill="#fff"/><path d="M226.88,9.77A55.91,55.91,0,0,1,236.66,9c5.44,0,9,.95,11.41,3.06a9.11,9.11,0,0,1,3.11,7.11c0,4.95-3.28,8.23-7.44,9.56v.17c3,1,4.86,3.66,5.8,7.55,1.28,5.23,2.22,8.84,3,10.29h-5.27c-.64-1.06-1.52-4.28-2.63-8.95-1.17-5.17-3.28-7.12-7.9-7.28H232V46.73h-5.1ZM232,26.83h5.21c5.44,0,8.89-2.83,8.89-7.11,0-4.84-3.68-6.95-9.07-7a22,22,0,0,0-5,.45Z" transform="translate(-3.5 -4.5)" fill="#fff"/><path d="M292.27,27.61c0,12.89-8.26,19.73-18.33,19.73-10.41,0-17.73-7.67-17.73-19,0-11.89,7.78-19.67,18.32-19.67C285.3,8.66,292.27,16.49,292.27,27.61Zm-30.62.61c0,8,4.57,15.17,12.59,15.17s12.64-7.06,12.64-15.56c0-7.45-4.1-15.23-12.58-15.23S261.65,20,261.65,28.22Z" transform="translate(-3.5 -4.5)" fill="#fff"/><path d="M99.36,63.84H95.18v3.87h4.66v1.17h-6V58.13H99.6v1.16H95.18v3.4h4.18Z" transform="translate(-3.5 -4.5)" fill="#fff"/><path d="M101.4,67.44a3.68,3.68,0,0,0,1.85.56c1,0,1.5-.51,1.5-1.15s-.4-1-1.44-1.42c-1.38-.49-2-1.26-2-2.18A2.39,2.39,0,0,1,103.94,61a3.77,3.77,0,0,1,1.89.48l-.35,1A3,3,0,0,0,103.9,62c-.83,0-1.29.48-1.29,1.06s.46.92,1.47,1.3c1.34.51,2,1.18,2,2.33,0,1.36-1,2.32-2.88,2.32a4.37,4.37,0,0,1-2.17-.53Z" transform="translate(-3.5 -4.5)" fill="#fff"/><path d="M113.17,67.68h0a2.75,2.75,0,0,1-2.52,1.37c-1.8,0-3.27-1.56-3.27-3.91,0-2.88,1.86-4.16,3.49-4.16a2.54,2.54,0,0,1,2.38,1.34h0l0-1.16h1.32c0,.65-.05,1.32-.05,2.12V72h-1.4Zm0-3.4a2.88,2.88,0,0,0-.06-.59,2.05,2.05,0,0,0-2-1.59c-1.45,0-2.33,1.23-2.33,3,0,1.54.73,2.87,2.28,2.87a2.08,2.08,0,0,0,2-1.53,2.47,2.47,0,0,0,.11-.67Z" transform="translate(-3.5 -4.5)" fill="#fff"/><path d="M123.35,66.77c0,.8,0,1.5.06,2.11h-1.25l-.07-1.26h0a2.9,2.9,0,0,1-2.55,1.43c-1.21,0-2.66-.67-2.66-3.38V61.16h1.4v4.27c0,1.47.45,2.46,1.72,2.46a2,2,0,0,0,1.85-1.28,2.05,2.05,0,0,0,.13-.72V61.16h1.41Z" transform="translate(-3.5 -4.5)" fill="#fff"/><path d="M130,68.88l-.11-1h-.05a2.86,2.86,0,0,1-2.36,1.15,2.2,2.2,0,0,1-2.36-2.22c0-1.86,1.66-2.88,4.64-2.87V63.8A1.59,1.59,0,0,0,128,62a3.89,3.89,0,0,0-2,.57l-.31-.92a4.71,4.71,0,0,1,2.53-.69c2.36,0,2.94,1.61,2.94,3.16V67a11.57,11.57,0,0,0,.12,1.85Zm-.21-3.94c-1.53,0-3.27.24-3.27,1.73A1.24,1.24,0,0,0,127.79,68a1.91,1.91,0,0,0,1.87-1.29,1.36,1.36,0,0,0,.08-.44Z" transform="translate(-3.5 -4.5)" fill="#fff"/><path d="M140,57.55v9.33c0,.69,0,1.47.06,2h-1.26l-.06-1.34h0a2.87,2.87,0,0,1-2.64,1.51c-1.86,0-3.3-1.58-3.3-3.92,0-2.57,1.58-4.15,3.46-4.15a2.59,2.59,0,0,1,2.33,1.18h0V57.55Zm-1.41,6.75a2.32,2.32,0,0,0-.06-.59,2.07,2.07,0,0,0-2-1.63c-1.45,0-2.31,1.28-2.31,3s.77,2.86,2.28,2.86a2.11,2.11,0,0,0,2.06-1.68,2.31,2.31,0,0,0,.06-.6Z" transform="translate(-3.5 -4.5)" fill="#fff"/><path d="M142.36,63.56c0-.9,0-1.69-.07-2.4h1.23l0,1.51h.06A2.31,2.31,0,0,1,145.77,61a1.62,1.62,0,0,1,.4.05v1.32a2.28,2.28,0,0,0-.48-.05,2,2,0,0,0-1.88,1.81,4,4,0,0,0-.07.65v4.12h-1.38Z" transform="translate(-3.5 -4.5)" fill="#fff"/><path d="M149.2,59a.87.87,0,0,1-1.74,0,.86.86,0,0,1,.88-.88A.83.83,0,0,1,149.2,59Zm-1.57,9.89V61.16H149v7.72Z" transform="translate(-3.5 -4.5)" fill="#fff"/><path d="M151.37,57.55h1.4V68.88h-1.4Z" transform="translate(-3.5 -4.5)" fill="#fff"/><path d="M155.13,57.55h1.4v4.82h0a2.57,2.57,0,0,1,1-1A2.9,2.9,0,0,1,159,61c1,0,2.69.64,2.69,3.3v4.6h-1.4V64.44c0-1.24-.46-2.3-1.79-2.3a2,2,0,0,0-1.88,1.41,1.69,1.69,0,0,0-.1.67v4.66h-1.4Z" transform="translate(-3.5 -4.5)" fill="#fff"/><path d="M168.26,68.88l-.12-1h0a2.86,2.86,0,0,1-2.36,1.15,2.2,2.2,0,0,1-2.36-2.22C163.38,65,165,64,168,64V63.8A1.59,1.59,0,0,0,166.26,62a3.89,3.89,0,0,0-2,.57l-.32-.92a4.77,4.77,0,0,1,2.54-.69c2.36,0,2.94,1.61,2.94,3.16V67a11.57,11.57,0,0,0,.12,1.85Zm-.21-3.94c-1.53,0-3.27.24-3.27,1.73A1.24,1.24,0,0,0,166.1,68,1.91,1.91,0,0,0,168,66.72a1.36,1.36,0,0,0,.08-.44Z" transform="translate(-3.5 -4.5)" fill="#fff"/><path d="M171.48,67.44a3.68,3.68,0,0,0,1.85.56c1,0,1.5-.51,1.5-1.15s-.4-1-1.44-1.42c-1.39-.49-2-1.26-2-2.18A2.38,2.38,0,0,1,174,61a3.78,3.78,0,0,1,1.9.48l-.35,1A3,3,0,0,0,174,62c-.83,0-1.29.48-1.29,1.06s.46.92,1.47,1.3c1.34.51,2,1.18,2,2.33,0,1.36-1.05,2.32-2.88,2.32a4.37,4.37,0,0,1-2.17-.53Z" transform="translate(-3.5 -4.5)" fill="#fff"/><path d="M182.15,65.27A2.47,2.47,0,0,0,184.79,68a5,5,0,0,0,2.14-.4l.24,1a6.29,6.29,0,0,1-2.57.48,3.59,3.59,0,0,1-3.79-3.9c0-2.32,1.37-4.16,3.62-4.16,2.52,0,3.19,2.22,3.19,3.64a4.51,4.51,0,0,1-.05.65Zm4.11-1A2,2,0,0,0,184.32,62a2.33,2.33,0,0,0-2.16,2.28Z" transform="translate(-3.5 -4.5)" fill="#fff"/><path d="M202,63.39c0,3.7-2.25,5.66-5,5.66s-4.83-2.2-4.83-5.45c0-3.42,2.12-5.65,5-5.65S202,60.2,202,63.39Zm-8.34.17c0,2.3,1.24,4.36,3.43,4.36s3.44-2,3.44-4.47c0-2.13-1.11-4.37-3.42-4.37S193.63,61.2,193.63,63.56Z" transform="translate(-3.5 -4.5)" fill="#fff"/><path d="M203.73,63.56c0-.9,0-1.69-.07-2.4h1.23l.05,1.51H205A2.31,2.31,0,0,1,207.14,61a1.62,1.62,0,0,1,.4.05v1.32a2.28,2.28,0,0,0-.48-.05,2,2,0,0,0-1.88,1.81,3.16,3.16,0,0,0-.07.65v4.12h-1.38Z" transform="translate(-3.5 -4.5)" fill="#fff"/><path d="M214.28,68.59a5.18,5.18,0,0,1-2,.45l-.41.63a1.18,1.18,0,0,1,1.11,1.1c0,1-.78,1.3-1.66,1.3a2.24,2.24,0,0,1-1.08-.28l.24-.68a1.64,1.64,0,0,0,.86.24c.35,0,.69-.13.69-.51s-.5-.61-1.25-.67l.67-1.17a3.64,3.64,0,0,1-3.24-3.9,3.92,3.92,0,0,1,4.15-4.1,4.6,4.6,0,0,1,1.95.4L214,62.48a3.28,3.28,0,0,0-1.63-.37,2.91,2.91,0,0,0-.05,5.81,4,4,0,0,0,1.72-.38Z" transform="translate(-3.5 -4.5)" fill="#fff"/><path d="M220.2,68.88l-.11-1H220a2.86,2.86,0,0,1-2.36,1.15,2.2,2.2,0,0,1-2.36-2.22C215.32,65,217,64,220,64V63.8A1.59,1.59,0,0,0,218.21,62a3.84,3.84,0,0,0-2,.57l-.32-.92a4.74,4.74,0,0,1,2.53-.69c2.36,0,2.94,1.61,2.94,3.16V67a10.45,10.45,0,0,0,.13,1.85ZM220,64.94c-1.53,0-3.27.24-3.27,1.73A1.25,1.25,0,0,0,218.05,68a1.9,1.9,0,0,0,1.86-1.29,1.36,1.36,0,0,0,.08-.44Z" transform="translate(-3.5 -4.5)" fill="#fff"/><path d="M223.61,63.25c0-.8,0-1.46-.06-2.09h1.23l.06,1.24h0A2.67,2.67,0,0,1,227.31,61a2.29,2.29,0,0,1,2.19,1.55h0a3.21,3.21,0,0,1,.86-1A2.65,2.65,0,0,1,232.1,61c1,0,2.54.67,2.54,3.35v4.55h-1.38V64.51c0-1.49-.54-2.38-1.67-2.38a1.82,1.82,0,0,0-1.66,1.27,2.52,2.52,0,0,0-.11.71v4.77h-1.37V64.25c0-1.23-.55-2.12-1.61-2.12a1.91,1.91,0,0,0-1.74,1.4,2,2,0,0,0-.12.69v4.66h-1.37Z" transform="translate(-3.5 -4.5)" fill="#fff"/><path d="M237.7,65.27A2.47,2.47,0,0,0,240.34,68a5,5,0,0,0,2.14-.4l.24,1a6.29,6.29,0,0,1-2.57.48,3.59,3.59,0,0,1-3.79-3.9c0-2.32,1.37-4.16,3.62-4.16,2.52,0,3.19,2.22,3.19,3.64a4.51,4.51,0,0,1,0,.65Zm4.11-1A2,2,0,0,0,239.87,62a2.33,2.33,0,0,0-2.16,2.28Z" transform="translate(-3.5 -4.5)" fill="#fff"/><path d="M244.91,63.25c0-.8,0-1.46-.07-2.09h1.25l.08,1.27h0A2.83,2.83,0,0,1,248.75,61c1.07,0,2.73.64,2.73,3.29v4.61h-1.41V64.43c0-1.25-.46-2.29-1.78-2.29a2,2,0,0,0-1.89,1.44,2.17,2.17,0,0,0-.09.65v4.65h-1.4Z" transform="translate(-3.5 -4.5)" fill="#fff"/><path d="M255.38,58.94v2.22h2v1.06h-2v4.17c0,1,.27,1.5,1.06,1.5a3,3,0,0,0,.81-.1l.06,1a3.22,3.22,0,0,1-1.24.2,2,2,0,0,1-1.52-.59,2.93,2.93,0,0,1-.54-2V62.22h-1.19V61.16H254V59.31Z" transform="translate(-3.5 -4.5)" fill="#fff"/><path d="M265.86,65a3.77,3.77,0,0,1-3.84,4.1,3.67,3.67,0,0,1-3.7-4,3.77,3.77,0,0,1,3.83-4.1A3.65,3.65,0,0,1,265.86,65Zm-6.12.08c0,1.69,1,3,2.34,3s2.35-1.26,2.35-3c0-1.31-.66-3-2.32-3S259.74,63.56,259.74,65Z" transform="translate(-3.5 -4.5)" fill="#fff"/><path d="M267.44,67.44a3.71,3.71,0,0,0,1.85.56c1,0,1.5-.51,1.5-1.15s-.4-1-1.44-1.42c-1.38-.49-2-1.26-2-2.18A2.39,2.39,0,0,1,270,61a3.77,3.77,0,0,1,1.89.48l-.35,1a3,3,0,0,0-1.58-.45c-.82,0-1.29.48-1.29,1.06s.47.92,1.47,1.3c1.34.51,2,1.18,2,2.33,0,1.36-1.06,2.32-2.89,2.32a4.37,4.37,0,0,1-2.17-.53Z" transform="translate(-3.5 -4.5)" fill="#fff"/></svg>